<svg width="1200" height="760" viewBox="0 0 1200 760" fill="none" xmlns="http://www.w3.org/2000/svg"><rect width="1200" height="760" rx="34" fill="#071D33"/><rect x="54" y="52" width="1092" height="656" rx="28" fill="#091F36"/><path d="M116 574C190 508 250 535 320 466C399 388 430 435 512 340C585 255 636 318 705 251C790 168 884 212 1024 116" stroke="#D49A25" stroke-width="12" stroke-linecap="round"/><path d="M116 632H1046" stroke="#E8EEF5" stroke-width="4" stroke-linecap="round"/><path d="M116 122V632" stroke="#E8EEF5" stroke-width="4" stroke-linecap="round"/><rect x="712" y="472" width="284" height="94" rx="18" fill="#F8FAFC"/><rect x="742" y="500" width="170" height="18" rx="9" fill="#0A2B45"/><rect x="742" y="532" width="218" height="14" rx="7" fill="#7E91A8"/><rect x="168" y="156" width="242" height="146" rx="22" fill="#F8FAFC"/><rect x="198" y="190" width="132" height="18" rx="9" fill="#0A2B45"/><rect x="198" y="224" width="170" height="14" rx="7" fill="#7E91A8"/><rect x="198" y="254" width="98" height="34" rx="17" fill="#D49A25"/><circle cx="705" cy="251" r="20" fill="#F8FAFC"/><circle cx="512" cy="340" r="20" fill="#F8FAFC"/><circle cx="1024" cy="116" r="20" fill="#F8FAFC"/></svg>