<svg width="1200" height="760" viewBox="0 0 1200 760" fill="none" xmlns="http://www.w3.org/2000/svg"><rect width="1200" height="760" rx="34" fill="#071D33"/><rect x="46" y="42" width="1108" height="676" rx="24" fill="#F8FAFC"/><rect x="46" y="42" width="1108" height="92" rx="24" fill="#0A2B45"/><circle cx="93" cy="88" r="10" fill="#D49A25"/><circle cx="124" cy="88" r="10" fill="#E4EAF1"/><circle cx="155" cy="88" r="10" fill="#E4EAF1"/><rect x="86" y="182" width="445" height="52" rx="14" fill="#0A2B45"/><rect x="86" y="254" width="320" height="20" rx="10" fill="#7E91A8"/><rect x="86" y="290" width="390" height="20" rx="10" fill="#C3CEDB"/><rect x="86" y="354" width="170" height="50" rx="25" fill="#D49A25"/><rect x="281" y="354" width="170" height="50" rx="25" fill="#E8EEF5"/><rect x="624" y="177" width="404" height="288" rx="26" fill="#E7EDF4"/><rect x="661" y="210" width="330" height="190" rx="20" fill="#C9D6E4"/><path d="M681 378L777 282L856 355L902 315L981 390H681V378Z" fill="#0A2B45"/><circle cx="745" cy="252" r="31" fill="#D49A25"/><rect x="86" y="518" width="980" height="112" rx="24" fill="#F0F4F8"/><rect x="122" y="548" width="210" height="20" rx="10" fill="#0A2B45"/><rect x="122" y="584" width="280" height="18" rx="9" fill="#8FA0B5"/><rect x="459" y="548" width="210" height="20" rx="10" fill="#0A2B45"/><rect x="459" y="584" width="280" height="18" rx="9" fill="#8FA0B5"/><rect x="796" y="548" width="210" height="20" rx="10" fill="#0A2B45"/><rect x="796" y="584" width="220" height="18" rx="9" fill="#8FA0B5"/></svg>