<svg width="1200" height="760" viewBox="0 0 1200 760" fill="none" xmlns="http://www.w3.org/2000/svg"><rect width="1200" height="760" rx="34" fill="#071D33"/><rect x="56" y="58" width="1088" height="644" rx="28" fill="#F8FAFC"/><rect x="96" y="106" width="1008" height="80" rx="18" fill="#0A2B45"/><rect x="120" y="133" width="238" height="24" rx="12" fill="#D49A25"/><rect x="96" y="230" width="252" height="146" rx="22" fill="#EEF3F8"/><rect x="386" y="230" width="252" height="146" rx="22" fill="#EEF3F8"/><rect x="676" y="230" width="252" height="146" rx="22" fill="#EEF3F8"/><rect x="966" y="230" width="138" height="146" rx="22" fill="#EEF3F8"/><rect x="124" y="258" width="116" height="20" rx="10" fill="#0A2B45"/><rect x="414" y="258" width="116" height="20" rx="10" fill="#0A2B45"/><rect x="704" y="258" width="116" height="20" rx="10" fill="#0A2B45"/><rect x="124" y="304" width="172" height="40" rx="20" fill="#D49A25"/><rect x="414" y="304" width="172" height="40" rx="20" fill="#D49A25"/><rect x="704" y="304" width="172" height="40" rx="20" fill="#D49A25"/><rect x="96" y="422" width="1008" height="220" rx="22" fill="#EEF3F8"/><rect x="132" y="462" width="276" height="22" rx="11" fill="#0A2B45"/><rect x="132" y="514" width="910" height="18" rx="9" fill="#A8B6C5"/><rect x="132" y="560" width="790" height="18" rx="9" fill="#A8B6C5"/><rect x="132" y="606" width="860" height="18" rx="9" fill="#A8B6C5"/></svg>